# xmcd CD Database Entry
#
# Track frame offsets:
# 150
# 11692
# 21935
# 36405
# 55870
# 65720
# 83737
# 97175
# 110920
# 126635
# 137400
# 146647
# 159307
# 177037
#
# Disc length: 2495 seconds
#
# Revision: 3
# Processed by: cddbd v1.4b41PL1 Copyright (c) Steve Scherf et al.
# Submitted via: tcd 2.0b
#
DISCID=ca09bd0e
DTITLE=Dave Moore - Jukejoints and Cantinas
DYEAR=1900
DGENRE=
TTITLE0=I'll Be All Right
TTITLE1=El Gallinero
TTITLE2=Boll Weevil
TTITLE3=Mama Had a Sick Child
TTITLE4=Cotula Polka
TTITLE5=Casey Jones
TTITLE6=Everybody Ought to Make a Change
TTITLE7=She Ain't No Good
TTITLE8=Sister Kate
TTITLE9=Viva El Westside
TTITLE10=Salvador Waltz
TTITLE11=Payday
TTITLE12=Key to the Highway
TTITLE13=La Barranca
EXTD=Red House Records\nPO Box 4044\nSt. Paul MN 55104\n
EXTT0=Rev. Gary Davis
EXTT1=Santiage Jiminez Sr.
EXTT2=Blind Willie McTell
EXTT3=Mance Lipscomb
EXTT4=Santiago Jiminez Sr.
EXTT5=Mississippi John Hurt
EXTT6=Sleepy John Estes
EXTT7=Mississippi Sheiks
EXTT8=Armand J. Piron
EXTT9=Fred Zimmerle
EXTT10=Narcisso Martinez
EXTT11=Mississippi John Hurt
EXTT12=Big Bill Broonzy
EXTT13=Antonio Tanguma
PLAYORDER=
